{
  "accessors": [
    {
      "bufferView": 2,
      "componentType": 5126,
      "count": 65532,
      "max": [
        1.1688225269317627,
        1.52579665184021,
        3.1828248500823975
      ],
      "min": [
        -1.8565592765808105,
        -2.4455938339233398,
        -2.4180748462677002
      ],
      "type": "VEC3"
    },
    {
      "bufferView": 2,
      "byteOffset": 786384,
      "componentType": 5126,
      "count": 65532,
      "max": [
        1,
        1,
        1
      ],
      "min": [
        -1,
        -1,
        -1
      ],
      "type": "VEC3"
    },
    {
      "bufferView": 3,
      "componentType": 5126,
      "count": 65532,
      "max": [
        1,
        1,
        0.99999016523361206,
        1
      ],
      "min": [
        -1,
        -0.9999956488609314,
        -0.9999920129776001,
        -1
      ],
      "type": "VEC4"
    },
    {
      "bufferView": 3,
      "byteOffset": 1048512,
      "componentType": 5126,
      "count": 65532,
      "max": [
        0.81960785388946533,
        0.59215688705444336,
        0.67058825492858887,
        1
      ],
      "min": [
        0.062745101749897003,
        0.062745101749897003,
        0.062745101749897003,
        1
      ],
      "type": "VEC4"
    },
    {
      "bufferView": 1,
      "componentType": 5126,
      "count": 65532,
      "max": [
        0.99797999858856201,
        0.99331998825073242
      ],
      "min": [
        0.0018100000452250242,
        0.001879999996162951
      ],
      "type": "VEC2"
    },
    {
      "bufferView": 0,
      "componentType": 5125,
      "count": 342681,
      "max": [
        65531
      ],
      "min": [
        0
      ],
      "type": "SCALAR"
    },
    {
      "bufferView": 2,
      "byteOffset": 1572768,
      "componentType": 5126,
      "count": 50731,
      "max": [
        1.1618027687072754,
        1.6381181478500366,
        3.6264848709106445
      ],
      "min": [
        -1.9018604755401611,
        -3.8385939598083496,
        -2.41727614402771
      ],
      "type": "VEC3"
    },
    {
      "bufferView": 2,
      "byteOffset": 2181540,
      "componentType": 5126,
      "count": 50731,
      "max": [
        1,
        1,
        1
      ],
      "min": [
        -1,
        -1,
        -1
      ],
      "type": "VEC3"
    },
    {
      "bufferView": 3,
      "byteOffset": 2097024,
      "componentType": 5126,
      "count": 50731,
      "max": [
        1,
        0.99999988079071045,
        0.99999600648880005,
        1
      ],
      "min": [
        -1,
        -0.99999988079071045,
        -1,
        1
      ],
      "type": "VEC4"
    },
    {
      "bufferView": 3,
      "byteOffset": 2908720,
      "componentType": 5126,
      "count": 50731,
      "max": [
        1,
        1,
        1,
        1
      ],
      "min": [
        0.062745101749897003,
        0.058823529630899429,
        0.058823529630899429,
        1
      ],
      "type": "VEC4"
    },
    {
      "bufferView": 1,
      "byteOffset": 524256,
      "componentType": 5126,
      "count": 50731,
      "max": [
        0.99803000688552856,
        0.99792999029159546
      ],
      "min": [
        0.0015899999998509884,
        0.0016299999551847577
      ],
      "type": "VEC2"
    },
    {
      "bufferView": 0,
      "byteOffset": 1370724,
      "componentType": 5125,
      "count": 246915,
      "max": [
        50730
      ],
      "min": [
        0
      ],
      "type": "SCALAR"
    }
  ],
  "asset": {
    "extras": {
      "author": "cvbtruong (https://sketchfab.com/cvbtruong)",
      "license": "CC-BY-4.0 (http://creativecommons.org/licenses/by/4.0/)",
      "source": "https://sketchfab.com/3d-models/robber-cartoon-character-3d-model-82732a16bc014257a2fb99dcdaf3773d",
      "title": "Robber- cartoon character 3d model"
    },
    "generator": "Sketchfab-7.32.0",
    "version": "2.0"
  },
  "bufferViews": [
    {
      "buffer": 0,
      "byteLength": 2358384,
      "byteOffset": 0,
      "name": "floatBufferViews",
      "target": 34963
    },
    {
      "buffer": 0,
      "byteLength": 930104,
      "byteOffset": 2358384,
      "byteStride": 8,
      "name": "floatBufferViews",
      "target": 34962
    },
    {
      "buffer": 0,
      "byteLength": 2790312,
      "byteOffset": 3288488,
      "byteStride": 12,
      "name": "floatBufferViews",
      "target": 34962
    },
    {
      "buffer": 0,
      "byteLength": 3720416,
      "byteOffset": 6078800,
      "byteStride": 16,
      "name": "floatBufferViews",
      "target": 34962
    }
  ],
  "buffers": [
    {
      "byteLength": 9799216,
      "uri": "scene.bin"
    }
  ],
  "materials": [
    {
      "doubleSided": true,
      "name": "defaultMat",
      "pbrMetallicRoughness": {
        "baseColorFactor": [
          1,
          1,
          1,
          1
        ],
        "metallicFactor": 0,
        "roughnessFactor": 0.59999999999999998
      }
    }
  ],
  "meshes": [
    {
      "primitives": [
        {
          "attributes": {
            "COLOR_0": 3,
            "NORMAL": 1,
            "POSITION": 0,
            "TANGENT": 2,
            "TEXCOORD_0": 4
          },
          "indices": 5,
          "material": 0,
          "mode": 4
        }
      ]
    },
    {
      "primitives": [
        {
          "attributes": {
            "COLOR_0": 9,
            "NORMAL": 7,
            "POSITION": 6,
            "TANGENT": 8,
            "TEXCOORD_0": 10
          },
          "indices": 11,
          "material": 0,
          "mode": 4
        }
      ]
    }
  ],
  "nodes": [
    {
      "children": [
        1
      ],
      "name": "RootNode (gltf orientation matrix)",
      "rotation": [
        -0.70710678118654746,
        -0,
        -0,
        0.70710678118654757
      ]
    },
    {
      "children": [
        2
      ],
      "name": "RootNode (model correction matrix)"
    },
    {
      "children": [
        3,
        4
      ],
      "name": "Robber.OBJ.cleaner.materialmerger.gles"
    },
    {
      "mesh": 0,
      "name": ""
    },
    {
      "mesh": 1,
      "name": ""
    }
  ],
  "scene": 0,
  "scenes": [
    {
      "name": "OSG_Scene",
      "nodes": [
        0
      ]
    }
  ]
}

